<svg width="25" height="24" viewBox="0 0 25 24" fill="none" xmlns="http://www.w3.org/2000/svg">
<path opacity="0.4" d="M12.5 22C18.0228 22 22.5 17.5228 22.5 12C22.5 6.47715 18.0228 2 12.5 2C6.97715 2 2.5 6.47715 2.5 12C2.5 17.5228 6.97715 22 12.5 22Z" fill="#BC2228"/>
<path d="M11.0804 15.58C10.8804 15.58 10.6904 15.5 10.5504 15.36L7.72043 12.53C7.43043 12.24 7.43043 11.76 7.72043 11.47C8.01043 11.18 8.49043 11.18 8.78043 11.47L11.0804 13.77L16.2204 8.63001C16.5104 8.34001 16.9904 8.34001 17.2804 8.63001C17.5704 8.92001 17.5704 9.40001 17.2804 9.69001L11.6104 15.36C11.4704 15.5 11.2804 15.58 11.0804 15.58Z" fill="#BC2228"/>
</svg>
